HIERARCHY
ROOT Hips
{
	OFFSET 0.000000 0.000000 0.000000
	CHANNELS 6 Xposition Yposition Zposition Zrotation Yrotation Xrotation 
	JOINT LHipJoint
	{
		OFFSET 0.000000 0.000000 0.000000
		CHANNELS 3 Zrotation Yrotation Xrotation
		JOINT LeftUpLeg
		{
			OFFSET 1.363060 -1.794630 0.839290
			CHANNELS 3 Zrotation Yrotation Xrotation
			JOINT LeftLeg
			{
				OFFSET 2.448110 -6.726130 0.000000
				CHANNELS 3 Zrotation Yrotation Xrotation
				JOINT LeftFoot
				{
					OFFSET 2.562200 -7.039590 0.000000
					CHANNELS 3 Zrotation Yrotation Xrotation
					JOINT LeftToeBase
					{
						OFFSET 0.157640 -0.433110 2.322550
						CHANNELS 3 Zrotation Yrotation Xrotation
						End Site
						{
							OFFSET 0.000000 0.000000 0.000000
						}
					}
				}
			}
		}
	}
	JOINT RHipJoint
	{
		OFFSET 0.000000 0.000000 0.000000
		CHANNELS 3 Zrotation Yrotation Xrotation
		JOINT RightUpLeg
		{
			OFFSET -1.305520 -1.794630 0.839290
			CHANNELS 3 Zrotation Yrotation Xrotation
			JOINT RightLeg
			{
				OFFSET -2.542530 -6.985550 0.000000
				CHANNELS 3 Zrotation Yrotation Xrotation
				JOINT RightFoot
				{
					OFFSET -2.568260 -7.056230 0.000000
					CHANNELS 3 Zrotation Yrotation Xrotation
					JOINT RightToeBase
					{
						OFFSET -0.164730 -0.452590 2.363150
						CHANNELS 3 Zrotation Yrotation Xrotation
						End Site
						{
							OFFSET 0.000000 0.000000 0.000000
						}
					}
				}
			}
		}
	}
	JOINT LowerBack
	{
		OFFSET 0.000000 0.000000 0.000000
		CHANNELS 3 Zrotation Yrotation Xrotation
		JOINT Spine
		{
			OFFSET 0.028270 2.035590 -0.193380
			CHANNELS 3 Zrotation Yrotation Xrotation
			JOINT Spine1
			{
				OFFSET 0.056720 2.048850 -0.042750
				CHANNELS 3 Zrotation Yrotation Xrotation
				JOINT Neck
				{
					OFFSET 0.000000 0.000000 0.000000
					CHANNELS 3 Zrotation Yrotation Xrotation
					JOINT Neck1
					{
						OFFSET -0.054170 1.746240 0.172020
						CHANNELS 3 Zrotation Yrotation Xrotation
						JOINT Head
						{
							OFFSET 0.104070 1.761360 -0.123970
							CHANNELS 3 Zrotation Yrotation Xrotation
							End Site
							{
								OFFSET 0.000000 0.000000 0.000000
							}
						}
					}
				}
				JOINT LeftShoulder
				{
					OFFSET 0.000000 0.000000 0.000000
					CHANNELS 3 Zrotation Yrotation Xrotation
					JOINT LeftArm
					{
						OFFSET 3.362410 1.200890 -0.311210
						CHANNELS 3 Zrotation Yrotation Xrotation
						JOINT LeftForeArm
						{
							OFFSET 4.983000 -0.000000 -0.000000
							CHANNELS 3 Zrotation Yrotation Xrotation
							JOINT LeftHand
							{
								OFFSET 3.483560 -0.000000 -0.000000
								CHANNELS 3 Zrotation Yrotation Xrotation
								JOINT LeftFingerBase
								{
									OFFSET 0.000000 0.000000 0.000000
									CHANNELS 3 Zrotation Yrotation Xrotation
									JOINT LeftHandIndex1
									{
										OFFSET 0.715260 -0.000000 -0.000000
										CHANNELS 3 Zrotation Yrotation Xrotation
										End Site
										{
											OFFSET 0.000000 0.000000 0.000000
										}
									}
								}
								JOINT LThumb
								{
									OFFSET 0.000000 0.000000 0.000000
									CHANNELS 3 Zrotation Yrotation Xrotation
									End Site
									{
										OFFSET 0.000000 0.000000 0.000000
									}
								}
							}
						}
					}
				}
				JOINT RightShoulder
				{
					OFFSET 0.000000 0.000000 0.000000
					CHANNELS 3 Zrotation Yrotation Xrotation
					JOINT RightArm
					{
						OFFSET -3.136600 1.374050 -0.404650
						CHANNELS 3 Zrotation Yrotation Xrotation
						JOINT RightForeArm
						{
							OFFSET -5.241900 -0.000000 -0.000000
							CHANNELS 3 Zrotation Yrotation Xrotation
							JOINT RightHand
							{
								OFFSET -3.444170 -0.000000 -0.000000
								CHANNELS 3 Zrotation Yrotation Xrotation
								JOINT RightFingerBase
								{
									OFFSET 0.000000 0.000000 0.000000
									CHANNELS 3 Zrotation Yrotation Xrotation
									JOINT RightHandIndex1
									{
										OFFSET -0.622530 -0.000000 -0.000000
										CHANNELS 3 Zrotation Yrotation Xrotation
										End Site
										{
											OFFSET 0.000000 0.000000 0.000000
										}
									}
								}
								JOINT RThumb
								{
									OFFSET 0.000000 0.000000 0.000000
									CHANNELS 3 Zrotation Yrotation Xrotation
									End Site
									{
										OFFSET 0.000000 0.000000 0.000000
									}
								}
							}
						}
					}
				}
			}
		}
	}
}
MOTION
Frames: 12
Frame Time: 0.008333
0.607368 17.560001 19.627898 7.451731 4.335137 4.233654 -2.028110 1.992145 3.591848 -27.175498 -0.069398 3.941018 -0.888273 4.410388 15.853129 2.093173 -4.929645 -0.338112 0.000100 0.065728 0.180594 0.109942 -0.729801 -0.650707 6.088692 9.808126 -32.164669 0.604507 -5.885687 13.759612 4.139090 -17.192148 6.246045 -0.239605 3.149316 -8.694783 -7.749148 -1.918353 4.364165 0.602811 -3.079297 -2.243332 6.467858 -1.574005 -1.873660 -8.185284 -1.988049 -12.720989 3.475492 -1.344276 12.361789 2.930202 -1.152774 9.522737 -7.780273 2.383479 -2.470114 -78.035368 -7.936838 29.067775 12.595714 -23.527446 -3.770805 -1.469535 -3.595964 7.227322 15.285397 21.270211 7.060522 -7.125000 0.000000 0.000000 -14.239023 55.354518 -3.690887 6.591757 -2.432017 -2.439562 82.921286 -9.100507 -2.897766 -9.520392 15.388112 -1.854496 1.025075 -1.073147 16.081037 -12.991680 11.035994 -2.963913 7.125000 0.000000 0.000000 9.008684 -17.960011 5.864970
0.597675 17.549487 19.763923 7.424698 4.505664 4.334162 -2.030503 2.048666 3.652277 -27.001545 -0.068612 4.534117 -0.940077 4.233151 15.400881 2.133893 -5.118485 -0.137261 0.000100 0.067784 0.186182 0.151072 -0.749337 -0.662600 5.691655 10.444597 -31.783872 0.731582 -5.413742 12.455309 4.344202 -17.697951 5.721903 -0.251414 3.225549 -8.907349 -7.724846 -1.992202 4.284031 0.620926 -3.175326 -2.290292 6.502643 -1.614984 -2.011231 -8.167664 -1.962063 -12.531992 3.431145 -1.325450 12.424175 2.907005 -1.152721 9.510612 -7.769063 2.391402 -2.476159 -77.935348 -8.000587 29.182148 12.608169 -23.547790 -3.780979 -1.552620 -3.502571 6.971493 15.981846 20.445424 7.174765 -7.125000 0.000000 0.000000 -12.969270 54.606953 -3.114661 6.582598 -2.459917 -2.461568 83.013337 -9.589552 -3.320424 -9.503715 15.394291 -1.851942 1.023660 -1.071008 16.230674 -12.965181 11.023183 -2.953738 7.125000 0.000000 0.000000 9.027452 -17.979834 5.873511
0.587058 17.538544 19.898197 7.387488 4.687401 4.409498 -2.026980 2.104407 3.704278 -26.798827 -0.018258 5.099651 -0.980000 4.083799 15.026875 2.181735 -5.335685 0.070777 0.003057 -0.152341 -0.418678 0.185443 -0.771841 -0.674864 5.334560 11.067779 -31.380829 0.835823 -4.985260 11.288736 4.536484 -18.154156 5.153148 -0.236448 3.123038 -8.621908 -7.707424 -2.065561 4.219324 0.641931 -3.264795 -2.300367 6.556666 -1.665375 -2.010853 -8.150807 -1.941367 -12.493407 3.406064 -1.303284 12.444136 2.892013 -1.144877 9.505577 -7.752942 2.390150 -2.475818 -77.858111 -8.203936 29.247526 12.659650 -23.621024 -3.809971 -1.625639 -3.427683 6.685677 16.627025 19.774865 7.288468 -7.125000 0.000000 0.000000 -11.873681 54.005600 -2.667190 6.584496 -2.478667 -2.467141 83.081596 -9.834067 -3.760465 -9.459070 15.341526 -1.835034 1.024932 -1.085768 16.406287 -12.989763 11.091381 -2.980068 7.125000 0.000000 0.000000 9.003832 -17.899012 5.873847
0.575832 17.527318 20.031319 7.343581 4.876513 4.468273 -2.019566 2.159636 3.750734 -26.577184 0.064706 5.647050 -1.012106 3.952793 14.704344 2.234261 -5.571545 0.283544 0.007960 -0.518637 -1.425149 0.215367 -0.796297 -0.687373 5.003744 11.682218 -30.963151 0.925041 -4.585372 10.212776 4.720326 -18.577733 4.555043 -0.203867 2.902934 -8.008831 -7.694530 -2.138599 4.164765 0.664836 -3.349950 -2.286175 6.623345 -1.721957 -1.919719 -8.134452 -1.924151 -12.553779 3.393657 -1.278921 12.436186 2.882418 -1.131908 9.505208 -7.733591 2.382862 -2.471274 -77.795865 -8.499127 29.280671 12.736806 -23.729055 -3.851345 -1.692035 -3.364968 6.380133 17.238473 19.205773 7.401815 -7.125000 0.000000 0.000000 -10.892674 53.500441 -2.304426 6.593668 -2.491397 -2.461903 83.134203 -9.917705 -4.211942 -9.396025 15.249981 -1.808682 1.027971 -1.111646 16.598988 -13.047949 11.212873 -3.030415 7.125000 0.000000 0.000000 8.952325 -17.751977 5.868786
0.565534 17.516246 20.161115 7.373804 5.092742 4.561638 -2.006687 2.203590 3.785469 -26.441754 0.043236 6.139209 -1.035838 3.855736 14.470948 2.289144 -5.826033 0.513817 0.032674 -1.037127 -2.852154 0.233061 -0.813937 -0.699399 4.756094 11.989746 -30.698027 0.986949 -4.282524 9.390119 4.829865 -18.850562 4.290477 -0.186108 2.777005 -7.658508 -7.731996 -2.213015 4.122701 0.677052 -3.440487 -2.271389 6.688650 -1.781666 -1.819357 -8.152881 -1.937863 -12.680505 3.414596 -1.284631 12.423224 2.894272 -1.131265 9.525097 -7.711635 2.375118 -2.473046 -77.759005 -8.792357 29.210815 12.894269 -23.949631 -3.941028 -1.693867 -3.348082 6.290286 17.329416 19.078370 7.402665 -7.125000 0.000000 0.000000 -10.727785 53.373103 -2.229553 6.598273 -2.496887 -2.452141 83.191651 -9.936088 -4.746418 -9.318110 15.131664 -1.776373 1.025800 -1.155359 16.882026 -13.113059 11.437382 -3.113272 7.125000 0.000000 0.000000 8.894003 -17.483097 5.882382
0.555623 17.505240 20.289527 7.434844 5.320244 4.669383 -1.991537 2.242858 3.815330 -26.342165 -0.021649 6.608403 -1.056089 3.772793 14.274608 2.345005 -6.088265 0.751368 0.065624 -1.618888 -4.453989 0.245671 -0.828743 -0.711225 4.543019 12.169682 -30.496325 1.037504 -4.020018 8.672767 4.908514 -19.060721 4.164574 -0.174509 2.690229 -7.417421 -7.790400 -2.288004 4.085830 0.684824 -3.533261 -2.256357 6.753385 -1.842675 -1.715159 -8.185771 -1.964432 -12.834816 3.449396 -1.302844 12.408178 2.915044 -1.135746 9.553408 -7.688596 2.367185 -2.477443 -77.732700 -9.084771 29.098137 13.085118 -24.216995 -4.050796 -1.668859 -3.350248 6.290110 17.203970 19.134589 7.356746 -7.125000 0.000000 0.000000 -10.902182 53.402836 -2.274364 6.600978 -2.499367 -2.440498 83.251112 -9.927342 -5.315398 -9.234013 15.002218 -1.741587 1.021462 -1.206486 17.202619 -13.181047 11.704718 -3.209644 7.125000 0.000000 0.000000 8.832849 -17.163564 5.903733
0.544337 17.492593 20.420157 7.512579 5.516852 4.732865 -1.970979 2.279500 3.847237 -26.286403 -0.198682 7.112200 -1.074031 3.703340 14.116726 2.372988 -6.260514 1.050716 0.087605 -1.898790 -5.226209 0.238867 -0.837118 -0.715568 4.497474 12.135496 -30.491051 1.054541 -3.944174 8.460360 4.893130 -19.018513 4.182163 -0.235207 3.083621 -8.514540 -7.894267 -2.349672 4.123400 0.693859 -3.624597 -2.277995 6.855484 -1.887222 -1.794314 -8.262936 -1.978796 -12.801359 3.506589 -1.307796 12.423251 2.956599 -1.139246 9.562598 -7.671837 2.373752 -2.491438 -77.720775 -9.139748 28.984537 13.255078 -24.457682 -4.150652 -1.661783 -3.335861 6.261469 17.214471 19.037695 7.325338 -7.125000 0.000000 0.000000 -10.850215 53.290880 -2.233735 6.596436 -2.507919 -2.442469 83.267689 -10.150996 -5.728330 -9.147737 14.874704 -1.706762 1.026879 -1.234213 17.307751 -13.232406 11.841593 -3.264916 7.125000 0.000000 0.000000 8.785649 -16.998054 5.903618
0.532728 17.479560 20.551308 7.594243 5.706190 4.785932 -1.949149 2.315526 3.879625 -26.240952 -0.402103 7.624139 -1.091430 3.637061 13.967892 2.394411 -6.411591 1.364605 0.107006 -2.107665 -5.803226 0.227496 -0.843979 -0.718149 4.491349 12.050929 -30.531996 1.063692 -3.912251 8.366762 4.855620 -18.916924 4.233516 -0.312916 3.589993 -9.926531 -8.008832 -2.408205 4.178486 0.703192 -3.715595 -2.308262 6.966374 -1.927894 -1.916610 -8.350519 -1.990288 -12.723721 3.569051 -1.309629 12.445410 3.003045 -1.142515 9.567290 -7.656555 2.383732 -2.507691 -77.712235 -9.138857 28.870720 13.420123 -24.692091 -4.248175 -1.658926 -3.317579 6.226130 17.256960 18.904773 7.297344 -7.125000 0.000000 0.000000 -10.744987 53.145585 -2.173002 6.590189 -2.517901 -2.447644 83.274175 -10.429332 -6.104546 -9.060947 14.747646 -1.671929 1.034591 -1.256433 17.362188 -13.279853 11.947770 -3.310519 7.125000 0.000000 0.000000 8.741734 -16.868785 5.898451
0.524267 17.466427 20.679110 7.650877 5.877548 4.821542 -1.918973 2.342261 3.907187 -26.197354 -0.590743 8.072035 -1.091451 3.623950 13.967226 2.418341 -6.571858 1.671402 0.120681 -2.236618 -6.160106 0.199136 -0.839269 -0.716048 4.698390 11.619261 -30.790895 1.057743 -4.015636 8.649802 4.636753 -18.318146 4.556311 -0.252577 3.201001 -8.841578 -8.039661 -2.464788 4.279164 0.704986 -3.804992 -2.346409 6.994314 -1.963437 -2.090420 -8.338714 -1.960851 -12.662473 3.556067 -1.276352 12.509706 2.995792 -1.131974 9.595993 -7.639491 2.382739 -2.524430 -77.695063 -9.126207 28.737251 13.577955 -24.903238 -4.331778 -1.653286 -3.363207 6.082383 17.332467 19.296712 7.461626 -7.125000 0.000000 0.000000 -10.848298 53.596557 -2.315756 6.582902 -2.529595 -2.462963 83.326802 -10.756726 -6.413229 -9.013488 14.677675 -1.653895 1.037888 -1.219859 17.360473 -13.204019 11.662053 -3.210423 7.125000 0.000000 0.000000 8.802618 -17.200287 5.875385
0.516333 17.453283 20.806499 7.707523 6.050340 4.854288 -1.887576 2.368004 3.934074 -26.157040 -0.777845 8.515992 -1.089612 3.616264 13.981882 2.442688 -6.734185 1.977795 0.134287 -2.361303 -6.505324 0.168606 -0.833272 -0.713363 4.928688 11.139002 -31.074764 1.050160 -4.133930 8.974491 4.395498 -17.657980 4.914063 -0.179726 2.729986 -7.527947 -8.061977 -2.522150 4.386735 0.705689 -3.895569 -2.384876 7.012515 -1.999279 -2.268590 -8.316609 -1.927769 -12.604110 3.535186 -1.240162 12.576960 2.982903 -1.120254 9.626755 -7.622391 2.380309 -2.541035 -77.677205 -9.115795 28.600276 13.735264 -25.111960 -4.413976 -1.646735 -3.416273 5.933072 17.404732 19.752149 7.645218 -7.125000 0.000000 0.000000 -10.986620 54.117705 -2.486077 6.575469 -2.541179 -2.479024 83.383936 -11.085705 -6.719607 -8.969800 14.613096 -1.637463 1.040697 -1.177764 17.359198 -13.117431 11.338157 -3.096474 7.125000 0.000000 0.000000 8.872820 -17.576503 5.849971
0.522356 17.440031 20.928177 7.913369 6.418676 4.813048 -1.829946 2.387336 3.947714 -26.309342 -0.957195 9.095530 -1.075493 3.629669 14.067823 2.478046 -6.969665 2.301266 0.177570 -2.695387 -7.432926 0.104251 -0.816095 -0.702226 5.336750 9.704504 -31.614212 1.030893 -4.374138 9.647746 3.841687 -16.140220 5.829310 -0.149887 2.483416 -6.844226 -8.053156 -2.639405 4.651275 0.683524 -4.068839 -2.396390 6.918909 -2.084129 -2.411581 -8.245291 -1.911375 -12.627378 3.472109 -1.231570 12.577726 2.938987 -1.117354 9.642835 -7.613671 2.353756 -2.546485 -77.667980 -9.313825 28.362533 13.902902 -25.308212 -4.491586 -1.600258 -3.551489 6.081750 17.080187 21.031888 7.885725 -7.125000 0.000000 0.000000 -12.058885 55.453621 -3.158727 6.565133 -2.535689 -2.480925 83.446806 -11.221954 -7.283542 -8.926726 14.544275 -1.620760 1.039358 -1.142087 17.718182 -13.095103 10.971339 -2.987713 7.125000 0.000000 0.000000 8.899285 -17.992514 5.785126
0.524788 17.427587 21.052684 8.074093 6.729513 4.775193 -1.776940 2.407492 3.962306 -26.411286 -1.134151 9.643035 -1.060502 3.649488 14.168480 2.504818 -7.165496 2.632879 0.221945 -3.028574 -8.358640 0.044953 -0.800784 -0.692943 5.749492 8.453443 -32.111983 1.008079 -4.619714 10.336084 3.330065 -14.743651 6.692044 -0.120481 2.234041 -6.153023 -8.051220 -2.736711 4.869482 0.668750 -4.212179 -2.404832 6.858989 -2.155788 -2.525477 -8.183620 -1.901972 -12.650027 3.414094 -1.230060 12.580375 2.897306 -1.117781 9.657816 -7.601909 2.331716 -2.550878 -77.666216 -9.507888 28.125107 14.063207 -25.498762 -4.567685 -1.560804 -3.668367 6.220075 16.806508 22.147177 8.099916 -7.125000 0.000000 0.000000 -12.982199 56.619354 -3.741585 6.557999 -2.534097 -2.482548 83.503443 -11.361766 -7.843636 -8.882661 14.475230 -1.603538 1.039029 -1.111733 18.064132 -13.083525 10.647320 -2.893689 7.125000 0.000000 0.000000 8.915885 -18.359308 5.723525
